<?xml version="1.0" encoding="UTF-8"?>
<svg width="191px" height="45px" viewBox="0 0 191 45" version="1.1" xmlns="http://www.w3.org/2000/svg" xmlns:xlink="http://www.w3.org/1999/xlink">
    <!-- Generator: Sketch 50.2 (55047) - http://www.bohemiancoding.com/sketch -->
    <title>futourist-logo-gradientslogo</title>
    <desc>Created with Sketch.</desc>
    <defs>
        <linearGradient x1="19.7748812%" y1="75.5857461%" x2="81.5328849%" y2="14.0982183%" id="linearGradient-1">
            <stop stop-color="#2AC7D3" offset="0%"></stop>
            <stop stop-color="#71AFE5" offset="100%"></stop>
        </linearGradient>
    </defs>
    <g id="Boostrap3-Grid" stroke="none" stroke-width="1" fill="none" fill-rule="evenodd">
        <g id="Desktop-(-&gt;1170px)" transform="translate(-107.000000, -62.000000)" fill-rule="nonzero">
            <g id="futourist-logo-gradients" transform="translate(107.000000, 62.000000)">
                <path d="M44.7,13.8 C44.4,12.6 43.2,11.9 42,12.2 L39.7,12.8 C37.8,5.4 31.2,0 23.4,0 C14.1,0 6.6,7.5 6.6,16.8 C6.6,18 6.9,19.3 7.3,20.7 L1.8,22 C0.6,22.3 -0.1,23.5 0.1,24.7 C0.3,25.7 1.3,26.5 2.3,26.5 C2.5,26.5 2.6,26.5 2.8,26.4 L9,24.9 C12.9,33.2 20.5,42.6 21.6,44.1 C22,44.6 22.7,44.9 23.4,44.9 C24.1,44.9 24.7,44.6 25.2,44.1 C26.7,42.2 39.7,25.9 40.2,17.3 L43.1,16.6 C44.3,16.2 45,15 44.7,13.8 M23.4,39 C21.8,36.9 19.7,34 17.7,31.1 L31,27.9 C28.5,32 25.6,36.1 23.4,39 M33.9,22.6 L15.2,27 C14.6,25.9 14,24.9 13.5,23.9 L24.1,21.4 C25.3,21.1 26,19.9 25.8,18.7 C25.5,17.5 24.3,16.8 23.1,17 L11.7,19.7 C11.4,18.6 11.2,17.6 11.2,16.8 C11.2,16.5 11.2,16.3 11.2,16 L14.8,15.2 C16,14.9 16.7,13.7 16.5,12.5 C16.2,11.3 15,10.6 13.8,10.8 L12.6,11 C14.7,7.2 18.7,4.5 23.4,4.5 C29.1,4.5 33.9,8.4 35.3,13.8 L32,14.6 C30.8,14.9 30.1,16.1 30.4,17.3 C30.7,18.3 31.6,19 32.6,19 C32.8,19 32.9,19 33.1,18.9 L35.5,18.3 C35.2,19.6 34.6,21.1 33.9,22.6" id="Shape" fill="url(#linearGradient-1)"></path>
                <g id="Group" transform="translate(52.000000, 13.000000)" fill="#2A4153">
                    <path d="M12.5,0.9 L1.5,0.9 C1.3,0.9 1.2,1 1,1.1 C0.9,1.2 0.8,1.4 0.8,1.6 L0.8,18.2 C0.8,18.4 0.9,18.5 1,18.6 C1.1,18.7 1.3,18.8 1.4,18.8 L3.7,18.8 C3.9,18.8 4,18.7 4.2,18.6 C4.3,18.5 4.4,18.3 4.4,18.2 L4.4,11.9 L12,11.9 C12.2,11.9 12.3,11.8 12.5,11.7 C12.6,11.6 12.7,11.4 12.7,11.3 L12.7,9.5 C12.7,9.3 12.6,9.2 12.5,9.1 C12.4,9 12.2,8.9 12,8.9 L4.4,8.9 L4.4,4 L12.5,4 C12.7,4 12.8,3.9 13,3.8 C13.1,3.7 13.2,3.5 13.2,3.4 L13.2,1.6 C13.2,1.4 13.1,1.3 13,1.1 C12.9,1 12.7,0.9 12.5,0.9 Z" id="Shape"></path>
                    <path d="M29.9,0.9 L27.6,0.9 C27.4,0.9 27.3,1 27.1,1.1 C27,1.2 27,1.4 27,1.6 L27,12 C27,13.3 26.7,14.3 26,15 C25.4,15.7 24.5,16 23.3,16 C22.1,16 21.2,15.7 20.6,15 C20,14.3 19.6,13.3 19.6,12 L19.6,1.6 C19.6,1.4 19.5,1.3 19.4,1.1 C19.3,1 19.1,0.9 18.9,0.9 L16.6,0.9 C16.4,0.9 16.3,1 16.1,1.1 C16,1.2 15.9,1.4 15.9,1.6 L15.9,12 C15.9,14.4 16.5,16.1 17.8,17.3 C19.1,18.4 20.9,19.1 23.2,19.1 C25.5,19.1 27.3,18.5 28.5,17.3 C29.8,16.1 30.4,14.4 30.4,12 L30.4,1.6 C30.4,1.4 30.4,1.3 30.2,1.1 C30.3,1 30.1,0.9 29.9,0.9 Z" id="Shape"></path>
                    <path d="M46.5,0.9 L33.5,0.9 C33.3,0.9 33.2,1 33,1.1 C32.9,1.2 32.8,1.4 32.8,1.6 L32.8,3.5 C32.8,3.7 32.9,3.8 33,4 C33.1,4.1 33.3,4.2 33.4,4.2 L38.1,4.2 L38.1,18.2 C38.1,18.4 38.2,18.5 38.3,18.6 C38.4,18.7 38.6,18.8 38.7,18.8 L41.1,18.8 C41.3,18.8 41.4,18.7 41.6,18.6 C41.7,18.5 41.8,18.3 41.8,18.2 L41.8,4.2 L46.5,4.2 C46.7,4.2 46.8,4.1 47,4 C47.2,3.9 47.2,3.7 47.2,3.5 L47.2,1.6 C47.2,1.4 47.1,1.3 47,1.1 C46.9,1 46.7,0.9 46.5,0.9 Z" id="Shape"></path>
                    <path d="M61.6,2.5 C60.3,1.3 58.5,0.7 56.2,0.7 C53.9,0.7 52.2,1.3 50.8,2.5 C49.5,3.7 48.8,5.4 48.7,7.7 C48.7,8.2 48.7,8.9 48.7,9.9 C48.7,10.9 48.7,11.6 48.7,12.1 C48.8,14.4 49.4,16.1 50.7,17.3 C52,18.4 53.8,19.1 56.1,19.1 C58.4,19.1 60.2,18.5 61.5,17.3 C62.8,16.2 63.5,14.4 63.6,12.1 C63.6,11.1 63.6,10.4 63.6,9.9 C63.6,9.4 63.6,8.7 63.6,7.7 C63.7,5.4 63,3.7 61.6,2.5 Z M60,11.9 C60,13.3 59.6,14.3 58.9,15 C58.3,15.7 57.4,16 56.2,16 C55.1,16 54.2,15.7 53.5,15 C52.8,14.4 52.5,13.3 52.4,11.9 C52.4,11.4 52.4,10.7 52.4,9.8 C52.4,8.9 52.4,8.2 52.4,7.7 C52.4,6.3 52.8,5.3 53.5,4.6 C54.2,3.9 55.1,3.6 56.2,3.6 C57.3,3.6 58.2,3.9 58.9,4.6 C59.6,5.2 60,6.3 60,7.7 C60,8.7 60,9.4 60,9.8 C60.1,10.2 60.1,10.9 60,11.9 Z" id="Shape"></path>
                    <path d="M80.9,0.9 L78.6,0.9 C78.4,0.9 78.3,1 78.1,1.1 C78,1.2 77.9,1.4 77.9,1.6 L77.9,12 C77.9,13.3 77.6,14.3 76.9,15 C76.3,15.7 75.4,16 74.2,16 C73,16 72.1,15.7 71.5,15 C70.9,14.3 70.5,13.3 70.5,12 L70.5,1.6 C70.5,1.4 70.4,1.3 70.3,1.1 C70.2,1 70,0.9 69.8,0.9 L67.5,0.9 C67.3,0.9 67.2,1 67,1.1 C66.9,1.2 66.8,1.4 66.8,1.6 L66.8,12 C66.8,14.4 67.4,16.1 68.7,17.3 C70,18.4 71.8,19.1 74.1,19.1 C76.4,19.1 78.2,18.5 79.4,17.3 C80.7,16.1 81.3,14.4 81.3,12 L81.3,1.6 C81.3,1.4 81.3,1.3 81.1,1.1 C81.2,1 81.1,0.9 80.9,0.9 Z" id="Shape"></path>
                    <path d="M95.7,11.4 C96.8,11 97.6,10.4 98.2,9.6 C98.8,8.8 99.1,7.7 99.1,6.5 C99.1,4.7 98.5,3.3 97.3,2.4 C96.1,1.4 94.5,0.9 92.4,0.9 L85.8,0.9 C85.6,0.9 85.5,1 85.3,1.1 C85.2,1.2 85.1,1.4 85.1,1.6 L85.1,18.2 C85.1,18.4 85.2,18.5 85.3,18.6 C85.4,18.7 85.6,18.8 85.7,18.8 L88,18.8 C88.2,18.8 88.3,18.7 88.5,18.6 C88.6,18.5 88.7,18.3 88.7,18.2 L88.7,12 L92.2,12 L95.4,18 C95.5,18.2 95.7,18.4 95.8,18.5 C96,18.6 96.2,18.7 96.4,18.7 L98.7,18.7 C98.9,18.7 99,18.7 99.1,18.5 C99.2,18.4 99.3,18.3 99.3,18.1 C99.3,18 99.3,17.9 99.2,17.8 L95.7,11.4 Z M94.7,8.4 C94.2,8.9 93.4,9.1 92.4,9.1 L88.9,9.1 L88.9,3.7 L92.4,3.7 C93.4,3.7 94.2,3.9 94.7,4.4 C95.2,4.9 95.5,5.5 95.5,6.4 C95.4,7.3 95.2,8 94.7,8.4 Z" id="Shape"></path>
                    <path d="M105.4,0.9 L103,0.9 C102.8,0.9 102.7,0.9 102.6,1.1 C102.5,1.2 102.4,1.4 102.4,1.6 L102.4,18.2 C102.4,18.4 102.5,18.5 102.6,18.6 C102.7,18.7 102.9,18.8 103,18.8 L105.4,18.8 C105.6,18.8 105.7,18.7 105.9,18.6 C106,18.5 106.1,18.3 106.1,18.2 L106.1,1.5 C106.1,1.3 106.1,1.2 105.9,1 C105.8,1 105.6,0.9 105.4,0.9 Z" id="Shape"></path>
                    <path d="M120.8,9.5 C119.9,9.1 118.7,8.7 117.2,8.4 C116.1,8.1 115.3,7.9 114.7,7.6 C114.1,7.3 113.7,7.1 113.4,6.8 C113.1,6.5 113,6.1 113,5.7 C113,5 113.3,4.5 113.8,4.1 C114.3,3.8 115.1,3.6 116,3.6 C116.8,3.6 117.6,3.8 118.1,4.1 C118.7,4.5 119,4.9 119.1,5.5 C119.3,5.8 119.5,6 119.9,6 L122.3,6 C122.5,6 122.6,6 122.7,5.8 C122.8,5.6 122.9,5.6 122.9,5.4 C122.9,4.6 122.6,3.9 122.1,3.2 C121.6,2.5 120.8,1.9 119.8,1.4 C118.8,0.9 117.6,0.7 116.2,0.7 C114.9,0.7 113.7,0.9 112.7,1.3 C111.7,1.8 110.9,2.4 110.4,3.1 C109.9,3.9 109.6,4.7 109.6,5.7 C109.6,7.2 110.1,8.3 111,9.1 C111.9,9.9 113.4,10.5 115.4,11 C116.6,11.3 117.5,11.6 118.2,11.8 C118.8,12 119.3,12.3 119.6,12.6 C119.9,12.9 120.1,13.3 120.1,13.7 C120.1,14.4 119.8,15 119.2,15.3 C118.6,15.7 117.7,15.9 116.5,15.9 C115.4,15.9 114.6,15.7 114,15.3 C113.4,14.9 113,14.4 112.9,13.8 C112.8,13.6 112.7,13.5 112.6,13.5 C112.5,13.4 112.3,13.4 112.1,13.4 L109.8,13.4 C109.6,13.4 109.5,13.4 109.4,13.6 C109.3,13.7 109.2,13.8 109.2,14 C109.2,14.9 109.5,15.7 110.1,16.4 C110.7,17.1 111.5,17.7 112.6,18.2 C113.7,18.7 115,18.9 116.5,18.8 C117.9,18.8 119.2,18.6 120.3,18.2 C121.4,17.8 122.2,17.2 122.9,16.4 C123.5,15.6 123.8,14.6 123.8,13.5 C123.8,12.5 123.6,11.7 123.2,11 C122.3,10.5 121.7,9.9 120.8,9.5 Z" id="Shape"></path>
                    <path d="M138.8,1.1 C138.7,1 138.5,0.9 138.3,0.9 L125.3,0.9 C125.1,0.9 125,1 124.8,1.1 C124.7,1.2 124.6,1.4 124.6,1.6 L124.6,3.5 C124.6,3.7 124.7,3.8 124.8,4 C124.9,4.1 125.1,4.2 125.2,4.2 L129.9,4.2 L129.9,18.2 C129.9,18.4 130,18.5 130.1,18.6 C130.2,18.7 130.4,18.8 130.5,18.8 L132.9,18.8 C133.1,18.8 133.2,18.7 133.4,18.6 C133.5,18.5 133.6,18.3 133.6,18.2 L133.6,4.2 L138.3,4.2 C138.5,4.2 138.6,4.1 138.8,4 C139,3.9 139,3.7 139,3.5 L139,1.6 C139,1.3 138.9,1.2 138.8,1.1 Z" id="Shape"></path>
                </g>
            </g>
        </g>
    </g>
</svg>